# xmcd
#
# Track frame offsets: 
#        150
#        23913
#        57540
#        91176
#        112992
#        134113
#        164014
#        191132
#        220082
#        242419
#        264341
#        302296
#        328253
#
# Disc length: 4783 seconds
#
# Revision: 0
# Processed by: cddbd v1.5.2PL0 Copyright (c) Steve Scherf et al.
# Submitted via: ExactAudioCopy v1.0b4
#
DISCID=b812ad0d
DTITLE=Warren Haynes - Ashes and Dust [disc 1]
DYEAR=2015
DGENRE=Blues Rock
TTITLE0=Is It Me Or You
TTITLE1=Coal Tattoo
TTITLE2=Blue Maiden’s Tale
TTITLE3=Company Man
TTITLE4=New Year’s Eve
TTITLE5=Stranded In Self-Pity
TTITLE6=Glory Road
TTITLE7=Gold Dust Woman (feat. Grace Potter)
TTITLE8=Beat Down The Dust
TTITLE9=Wanderlust
TTITLE10=Spots Of Time
TTITLE11=Hallelujah Boulevard
TTITLE12=Word On The Wind
EXTD=
EXTT0=
EXTT1=
EXTT2=
EXTT3=
EXTT4=
EXTT5=
EXTT6=
EXTT7=
EXTT8=
EXTT9=
EXTT10=
EXTT11=
EXTT12=
PLAYORDER=
